<svg width="171" height="110" viewBox="0 0 170.517 110.033" fill="none" preserveAspectRatio="none" xmlns="http://www.w3.org/2000/svg">
<g transform="translate(-91.699 -1106.863)">
<path d="M147.522 1212.4C136.647 1208.96 135.745 1197.61 130.058 1192.62C119.9 1183.7 103.52 1188.89 94.9333 1172.91C92.7411 1168.83 90.9195 1164.22 92.0319 1159.46L93.03 1164.96C98.987 1167.42 105.075 1158.16 109.038 1163.63C114.38 1171 119.954 1164.28 126.856 1167.86C132.546 1170.82 160.705 1180.37 163.508 1183.73C161.178 1185.36 157.87 1183.94 155.451 1182.91C152.176 1185.14 152.667 1186.68 149.785 1188.34C152.727 1190.79 159.671 1189.94 163.622 1192.58L163.558 1193.68C158.21 1194.25 148.082 1188.6 143.465 1190.88C141.48 1194.69 145.12 1199.59 148.924 1200.95C164.492 1206.52 177.859 1194.89 192.734 1193.35C197.51 1192.91 210.382 1196.45 216.022 1197.59C220.907 1198.57 226.356 1198.66 229.251 1202.47C229.704 1204.83 229.871 1205.9 230.815 1208.15C233.091 1209.61 234.277 1209.38 237.001 1209.44C239.704 1207.88 243.393 1205 245.894 1204.8C244.983 1211.74 241.616 1209.42 236.58 1213.83L236.153 1214.07L235.979 1215.73C201.442 1218.5 162.931 1215.41 128.126 1215.84C125.135 1215.88 123.171 1216.51 121.272 1214.07C127.842 1214.37 140.864 1215.02 147.061 1214.05L147.522 1212.4Z" fill="#B9B8B8"/>
<path d="M147.522 1212.4C149.006 1212.18 152.203 1213.56 154.165 1213.73C180.29 1215.91 210.365 1211.56 236.153 1214.07L235.979 1215.73C201.442 1218.5 162.931 1215.41 128.126 1215.84C125.135 1215.88 123.171 1216.51 121.272 1214.07C127.842 1214.37 140.864 1215.02 147.061 1214.05L147.522 1212.4Z" fill="#3F3F40"/>
<path d="M177.898 1107.17C182.29 1106.62 183.596 1106.86 187.917 1107.49C202.696 1109.42 193.714 1125.16 203.858 1130.9C208.216 1133.37 206.287 1152.01 205.98 1156.67C205.445 1164.77 196.368 1164.2 190.363 1164.11C161.308 1163.49 156.956 1169.75 160.313 1132.95C160.441 1131.55 165.408 1129.29 165.891 1127.39C168.931 1115.42 165.847 1113 177.898 1107.17Z" fill="black"/>
<path d="M181.198 1112.05C183.708 1112.2 186.381 1112.62 188.517 1114.04C191.194 1115.81 193.945 1118.93 194.468 1122.17C194.813 1124.31 193.738 1125.72 192.541 1127.38C189.494 1129.07 187.24 1128.64 183.791 1128.65L171.62 1128.42C171.673 1125.46 171.634 1121.86 172.714 1119.08C174.304 1114.98 177.442 1113.68 181.198 1112.05Z" fill="#F3F3F2"/>
<path d="M240.881 1213.98C247.156 1213.39 255.677 1214.31 262.216 1214.72C257.077 1215.44 246.068 1216.05 240.894 1215.77L240.881 1213.98Z" fill="#B9B8B8"/>
</g>
</svg>
